<mxfile host="app.diagrams.net" modified="2023-11-03T13:21:40.003Z" agent="Mozilla/5.0 (Windows NT 10.0; Win64; x64) AppleWebKit/537.36 (KHTML, like Gecko) Chrome/118.0.0.0 Safari/537.36" etag="Q3GNFjY9EdfGcpRRjQ7Q" version="22.0.8" type="device">
  <diagram name="PÃ¡gina-1" id="T9Qpb5BcK7dsVkgJPP9p">
    <mxGraphModel dx="1235" dy="624" grid="1" gridSize="10" guides="1" tooltips="1" connect="1" arrows="1" fold="1" page="1" pageScale="1" pageWidth="827" pageHeight="1169" math="0" shadow="0">
      <root>
        <mxCell id="0" />
        <mxCell id="1" parent="0" />
        <mxCell id="hCV04-yH2B6yShl4aCeO-7" style="edgeStyle=orthogonalEdgeStyle;rounded=0;orthogonalLoop=1;jettySize=auto;html=1;entryX=0;entryY=0.5;entryDx=0;entryDy=0;endArrow=none;endFill=0;" edge="1" parent="1" source="hCV04-yH2B6yShl4aCeO-1" target="hCV04-yH2B6yShl4aCeO-3">
          <mxGeometry relative="1" as="geometry" />
        </mxCell>
        <mxCell id="hCV04-yH2B6yShl4aCeO-13" style="edgeStyle=orthogonalEdgeStyle;rounded=0;orthogonalLoop=1;jettySize=auto;html=1;endArrow=none;endFill=0;" edge="1" parent="1" source="hCV04-yH2B6yShl4aCeO-1" target="hCV04-yH2B6yShl4aCeO-11">
          <mxGeometry relative="1" as="geometry" />
        </mxCell>
        <mxCell id="hCV04-yH2B6yShl4aCeO-14" style="edgeStyle=orthogonalEdgeStyle;rounded=0;orthogonalLoop=1;jettySize=auto;html=1;entryX=0;entryY=0.5;entryDx=0;entryDy=0;endArrow=none;endFill=0;" edge="1" parent="1" source="hCV04-yH2B6yShl4aCeO-1" target="hCV04-yH2B6yShl4aCeO-12">
          <mxGeometry relative="1" as="geometry" />
        </mxCell>
        <mxCell id="hCV04-yH2B6yShl4aCeO-20" style="edgeStyle=orthogonalEdgeStyle;rounded=0;orthogonalLoop=1;jettySize=auto;html=1;entryX=0;entryY=0.5;entryDx=0;entryDy=0;endArrow=none;endFill=0;" edge="1" parent="1" source="hCV04-yH2B6yShl4aCeO-1" target="hCV04-yH2B6yShl4aCeO-18">
          <mxGeometry relative="1" as="geometry" />
        </mxCell>
        <mxCell id="hCV04-yH2B6yShl4aCeO-1" value="User" style="shape=umlActor;verticalLabelPosition=bottom;verticalAlign=top;html=1;outlineConnect=0;" vertex="1" parent="1">
          <mxGeometry x="100" y="510" width="30" height="60" as="geometry" />
        </mxCell>
        <mxCell id="hCV04-yH2B6yShl4aCeO-3" value="CU1&lt;br&gt;Create Room" style="ellipse;whiteSpace=wrap;html=1;" vertex="1" parent="1">
          <mxGeometry x="300" y="340" width="120" height="60" as="geometry" />
        </mxCell>
        <mxCell id="hCV04-yH2B6yShl4aCeO-4" value="CU2&lt;br&gt;Edit Room" style="ellipse;whiteSpace=wrap;html=1;" vertex="1" parent="1">
          <mxGeometry x="470" y="230" width="115" height="60" as="geometry" />
        </mxCell>
        <mxCell id="hCV04-yH2B6yShl4aCeO-9" style="edgeStyle=orthogonalEdgeStyle;rounded=0;orthogonalLoop=1;jettySize=auto;html=1;dashed=1;" edge="1" parent="1" source="hCV04-yH2B6yShl4aCeO-5" target="hCV04-yH2B6yShl4aCeO-3">
          <mxGeometry relative="1" as="geometry" />
        </mxCell>
        <mxCell id="hCV04-yH2B6yShl4aCeO-5" value="CU3&lt;br&gt;Add Content to Room" style="ellipse;whiteSpace=wrap;html=1;" vertex="1" parent="1">
          <mxGeometry x="517.5" y="300" width="145" height="60" as="geometry" />
        </mxCell>
        <mxCell id="hCV04-yH2B6yShl4aCeO-10" style="edgeStyle=orthogonalEdgeStyle;rounded=0;orthogonalLoop=1;jettySize=auto;html=1;entryX=1;entryY=1;entryDx=0;entryDy=0;dashed=1;" edge="1" parent="1" source="hCV04-yH2B6yShl4aCeO-6" target="hCV04-yH2B6yShl4aCeO-3">
          <mxGeometry relative="1" as="geometry" />
        </mxCell>
        <mxCell id="hCV04-yH2B6yShl4aCeO-6" value="CU4&lt;br&gt;Delete content from Room" style="ellipse;whiteSpace=wrap;html=1;" vertex="1" parent="1">
          <mxGeometry x="505" y="380" width="170" height="60" as="geometry" />
        </mxCell>
        <mxCell id="hCV04-yH2B6yShl4aCeO-8" style="edgeStyle=orthogonalEdgeStyle;rounded=0;orthogonalLoop=1;jettySize=auto;html=1;entryX=0.725;entryY=0.1;entryDx=0;entryDy=0;entryPerimeter=0;dashed=1;" edge="1" parent="1" source="hCV04-yH2B6yShl4aCeO-4" target="hCV04-yH2B6yShl4aCeO-3">
          <mxGeometry relative="1" as="geometry" />
        </mxCell>
        <mxCell id="hCV04-yH2B6yShl4aCeO-11" value="CU6&lt;br&gt;Make Presets" style="ellipse;whiteSpace=wrap;html=1;" vertex="1" parent="1">
          <mxGeometry x="300" y="460" width="120" height="60" as="geometry" />
        </mxCell>
        <mxCell id="hCV04-yH2B6yShl4aCeO-12" value="CU8&lt;br&gt;Organize Resources" style="ellipse;whiteSpace=wrap;html=1;" vertex="1" parent="1">
          <mxGeometry x="300" y="555" width="140" height="60" as="geometry" />
        </mxCell>
        <mxCell id="hCV04-yH2B6yShl4aCeO-16" style="edgeStyle=orthogonalEdgeStyle;rounded=0;orthogonalLoop=1;jettySize=auto;html=1;dashed=1;" edge="1" parent="1" source="hCV04-yH2B6yShl4aCeO-15" target="hCV04-yH2B6yShl4aCeO-11">
          <mxGeometry relative="1" as="geometry" />
        </mxCell>
        <mxCell id="hCV04-yH2B6yShl4aCeO-15" value="CU7&lt;br&gt;Edit Presets" style="ellipse;whiteSpace=wrap;html=1;" vertex="1" parent="1">
          <mxGeometry x="542.5" y="460" width="120" height="60" as="geometry" />
        </mxCell>
        <mxCell id="hCV04-yH2B6yShl4aCeO-18" value="CU9&lt;br&gt;Exportar Mapa" style="ellipse;whiteSpace=wrap;html=1;" vertex="1" parent="1">
          <mxGeometry x="300" y="650" width="120" height="60" as="geometry" />
        </mxCell>
        <mxCell id="hCV04-yH2B6yShl4aCeO-21" style="edgeStyle=orthogonalEdgeStyle;rounded=0;orthogonalLoop=1;jettySize=auto;html=1;dashed=1;" edge="1" parent="1" source="hCV04-yH2B6yShl4aCeO-19" target="hCV04-yH2B6yShl4aCeO-3">
          <mxGeometry relative="1" as="geometry">
            <Array as="points">
              <mxPoint x="360" y="190" />
            </Array>
          </mxGeometry>
        </mxCell>
        <mxCell id="hCV04-yH2B6yShl4aCeO-19" value="CU5&lt;br&gt;Link Rooms" style="ellipse;whiteSpace=wrap;html=1;" vertex="1" parent="1">
          <mxGeometry x="414" y="160" width="115" height="60" as="geometry" />
        </mxCell>
      </root>
    </mxGraphModel>
  </diagram>
</mxfile>
